<svg width="800px" height="600px" xmlns="http://www.w3.org/2000/svg" transform="rotate(0) scale(1, 1)">

 <g>
  <title>Layer 1</title>

  <g>
   <path stroke-width="0px" fill="#ffbb60" d="m385.53192,143.66298c5.96,-0.35 11.91,-1.95 17.88,-0.97c5.15,0.79 10.4,1 15.46,2.34c13.62,3.21 26.36,9.93 36.88,19.13c6.84,6.83 12.1,15.16 16,23.98c7,2.04 14.17,4.48 19.81,9.29c7.41,5.77 12.62,14.26 14.56,23.44c1.33,9.9 0.54,21.04 -6.36,28.86c-3.42,4.53 -8.3,7.55 -13.37,9.91c-0.02,3.6 0.52,7.15 0.97,10.71c0.5,12.42 0.38,25.03 -2.77,37.14c-3,12 -6.71,23.87 -11.92,35.09c-4.37,11.3 -10.05,22.12 -13.25,33.86c-1.58,5.51 -0.74,11.3 -0.98,16.94c-0.33,5.79 1.93,11.52 0.46,17.27c-1.03,11.22 -6.1,22.13 -14.63,29.59c-9.06,9.94 -22.24,14.55 -35.15,16.83c-17.4,1.97 -36.08,-1.23 -50.27,-12c-6.65,-5.75 -12.95,-12.38 -16.24,-20.69c-1.58,-4.49 -3.18,-9.1 -3.16,-13.92c0.03,-9.34 0.05,-18.68 0.06,-28.01c0.11,-6.39 -2.79,-12.2 -4.93,-18.06c-7.9,-22.09 -18.81,-43.45 -21.86,-66.98c-0.67,-7.9 -2.08,-15.84 -0.88,-23.77c0.78,-4.64 0.8,-9.35 0.63,-14.03c-10.43,-3.58 -18.84,-13 -20.36,-24.03c-2.32,-11.26 1.7,-23.02 8.69,-31.86c4.77,-5.44 10.65,-10.84 18.19,-11.59c6.97,0.46 12.24,8.86 8.24,14.99c-3.62,3.86 -9.2,5.33 -12.38,9.69c-5.26,6.59 -5.12,16.9 1,22.9c2.77,-4.02 5.88,-8.78 11.12,-9.58c8.22,-1.8 16.06,4.11 19.72,11.09c3.12,5.93 0.79,12.8 2.21,19.06c1.63,5.88 10.09,8.66 14.48,4.11c4.49,-4.44 1.8,-11.67 5.39,-16.6c4.91,-7.22 15.39,-9.3 23.08,-5.54c5.65,2.52 10.12,7.86 10.97,14.07c1.04,7.48 -0.75,15.07 0.46,22.54c0.74,4.81 6.33,8.05 10.86,6.17c2.42,-1.12 4.5,-3.36 4.72,-6.11c0.96,-8.39 -1.09,-17.02 1.07,-25.28c2.02,-4.26 4.74,-9.18 9.91,-9.92c11.07,-2.15 22.46,-1.11 33.68,-1.49c6.31,-0.3 13.37,0.89 18.93,-2.85c4.93,-3.36 5.68,-10.09 4.49,-15.5c-1.14,-5.3 -5.14,-9.4 -9.43,-12.42c-5.93,-4.28 -13.62,-3.1 -20.49,-3.71c-3.7,-6.13 -4.36,-13.53 -8.11,-19.62c-6.89,-11.97 -19.03,-20.24 -32.24,-23.78c-23.75,-7.03 -50.6,0.96 -67.89,18.38c-3.09,2.99 -6.04,6.68 -10.42,7.73c-3.83,0.23 -6.58,-3.04 -9.5,-5.03c-1.59,-4.11 0.89,-8.15 3.29,-11.34c12.8,-16.74 32.61,-27.56 53.38,-30.43zm72.95,117.43c-7.14,0.86 -14.35,0.3 -21.51,0.83c-0.66,7.19 0.18,14.43 -0.65,21.59c-2.38,12.05 -14.55,21.03 -26.72,20.25c-11.48,-0.2 -21.69,-9.42 -23.88,-20.54c-1.35,-7.17 -0.43,-14.52 -1.51,-21.72c-1.58,4.47 -2.1,9.62 -5.45,13.24c-5.85,6.39 -14.35,10.96 -23.19,10.26c-5.94,-0.42 -10.99,-3.79 -16.16,-6.37c-3.48,-4.37 -6.25,-9.21 -8.53,-14.31c-0.82,14.19 -0.75,28.7 3.27,42.45c4.21,16.75 10.89,32.73 17.34,48.71c4.09,10.18 7.63,20.88 7.53,31.99c-0.24,7.68 -1.17,15.39 -0.47,23.08c1.33,7.75 6.16,14.78 12.65,19.16c2.59,2.75 6.51,3.61 9.87,5.11c15.14,6.01 33.35,4.49 46.72,-5.06c7.54,-5.22 12.59,-14.09 12.66,-23.32c0.08,-8.03 -1.11,-16.04 -0.57,-24.07c0.39,-7.14 2.11,-14.16 4.71,-20.81c4.2,-10.7 8.72,-21.25 13.15,-31.85c5.1,-12.2 8.68,-25.05 10.36,-38.17c0.8,-10.33 0.41,-20.73 -0.95,-31c-2.9,0.08 -5.8,0.21 -8.67,0.55z" class="cls-1"/>
   <path stroke-width="0px" fill="#ffbb60" d="m305.09192,160.07298c4.32,-2.19 8.36,-5.73 13.44,-5.73c5.32,0.08 9.69,4.89 9.9,10.08c-0.45,3.48 -1.83,7.15 -4.79,9.27c-2.98,2.22 -6.54,3.41 -9.8,5.11c-5.17,2.62 -9.42,6.63 -13.99,10.11c-3.59,2.7 -6.08,6.48 -8.97,9.85c-11.55,13.7 -17,31.92 -16.43,49.7c0.63,20.12 11.07,39.9 28.06,50.9c3.17,2.1 8.12,2.79 8.89,7.21c1.46,7.21 4.8,13.84 6.35,21.01c-5.45,0.33 -10.42,-2.02 -15.25,-4.19c-18.45,-7.93 -33.45,-23.32 -41.21,-41.8c-4.05,-9.53 -6.18,-19.83 -6.83,-30.13c0.37,-6.67 -0.88,-13.51 0.95,-20.03c-74.74,0.08 -149.47,-0.06 -224.21,0.07c2.89,4.39 6.48,8.59 11.24,11.01c7.26,3.09 15.34,3.09 23.1,2.94c26.87,0.03 53.74,-0.06 80.62,0.05c1.7,1.75 3.58,3.38 4.95,5.44c1.18,3.88 0.56,8.65 -2.81,11.28c-2.85,2.92 -7.19,2.2 -10.86,2.27c-20.69,-0.08 -41.38,-0.04 -62.07,-0.03c3.26,7.59 10.5,13.94 19.06,14c46.02,-0.03 92.04,0.05 138.06,-0.03c5.62,-0.07 11.57,-0.32 16.76,2.24c2.06,1.77 3.36,4.33 4.14,6.9c0.4,4.71 -3.22,8.81 -7.26,10.7c-3.53,0.49 -7.11,0.12 -10.65,0.18c-36.73,0 -73.45,-0.01 -110.17,0c5.13,8.46 13.96,14.94 24.14,14.99c35.68,0.01 71.37,0.06 107.05,-0.02c4.61,-0.19 8.83,2.07 12.04,5.23c-0.04,3.16 -0.06,6.33 -0.07,9.49c-1.96,1.79 -3.72,4.02 -6.32,4.88c-6.03,1.93 -12.43,1.42 -18.65,1.42c-12.73,-0.04 -25.46,0.02 -38.18,0.01c3.17,6.72 9.26,11.72 16.32,13.91c4.79,1.49 9.87,1.09 14.82,1.1c15.69,-0.03 31.38,0.03 47.07,-0.05c4.05,-0.24 7.06,2.88 9.95,5.25c-0.08,4.05 1.03,9.26 -2.8,12.02c-4.47,2.84 -9.99,3.47 -15.18,3.78c-14.33,0.02 -28.67,-0.07 -43,0.03c-10.65,-0.12 -21.45,-2.75 -30.48,-8.5c-5.7,-4.63 -11.08,-9.95 -14.48,-16.55c-2.33,-3.99 -3.26,-8.55 -4.33,-12.98c-13.22,-0.37 -26.53,0.83 -39.68,-0.89c-12.31,-0.31 -24.08,-6.86 -31.61,-16.49c-3.64,-4.97 -6.18,-10.69 -7.81,-16.62c-8.32,0.14 -16.91,0.2 -24.8,-2.82c-12.35,-5.17 -21.94,-16.71 -24.02,-30.04c-5.88,-1.74 -12.25,-0.57 -17.97,-3.04c-11.64,-3.79 -21.2,-13.12 -25.17,-24.7c-2.58,-7.89 -1.39,-16.27 -1.72,-24.41c4.5,-2.99 10.01,-1.87 15.07,-2c78.19,-0.03 156.38,0.06 234.56,-0.03c4.55,-9.51 9.1,-19.21 16.22,-27.13c2.44,-2.57 4.36,-5.59 6.92,-8.05c6.97,-5.8 13.76,-11.98 21.88,-16.17l0.01,0z" class="cls-1"/>
   <path stroke-width="0px" fill="#ffbb60" d="m473.24192,156.17298c2.74,-1.83 6.35,-2.17 9.39,-0.89c20.3,8.21 38.01,23.17 48.5,42.49c2.36,4.49 4.55,9.07 6.76,13.64c77.52,0.1 155.05,0.01 232.57,0.04c4.2,0.1 8.47,-0.4 12.64,0.32c2.59,0.55 4.28,3.08 4.34,5.65c0.54,9.38 -0.53,19.27 -5.63,27.39c-5.78,10.95 -17.58,17.15 -29.3,19.55c-3.27,0.12 -6.59,0.01 -9.71,1.12c-2.17,6.46 -3.87,13.42 -8.55,18.61c-6.9,8.25 -17.35,12.63 -27.78,14.21c-4.24,0.49 -8.52,-0.23 -12.75,0.34c-1.63,2.09 -1.35,5.14 -2.46,7.54c-4.83,12.2 -16.3,20.93 -28.73,24.36c-15.76,2.9 -31.84,1.66 -47.77,1.9c-2.11,8.54 -5.44,17.09 -11.91,23.29c-9.29,9.9 -23.06,14.3 -36.34,14.75c-14.36,-0.04 -28.71,-0.05 -43.07,0c-4.99,-0.14 -10.3,-0.63 -14.61,-3.4c-3.43,-2.21 -5.56,-7.02 -3.6,-10.86c1.68,-4.05 5.78,-6.91 10.22,-6.75c15.68,-0.06 31.37,0 47.05,0c7.2,0.48 14.61,-0.52 20.99,-4.05c4.37,-2.98 7.84,-7.19 10.14,-11.94c-6.4,-0.31 -12.78,0.03 -19.11,0.95c-12.01,-0.04 -24.03,0.16 -36.03,-0.08c-6.34,-0.07 -11.07,-6.73 -9.9,-12.76c0.68,-2.19 1.91,-4.14 2.98,-6.14c3.92,-0.92 7.86,-1.98 11.92,-2.01c35.01,0.06 70.03,-0.03 105.05,0.04c10.04,0.02 20.24,-5.59 24.4,-14.93c-39.84,-0.26 -79.7,0 -119.54,-0.13c-7.15,-0.05 -11.58,-9.66 -7.19,-15.19c3.03,-4.05 8.55,-4.63 13.23,-4.8c45.37,0.08 90.74,-0.02 136.12,0.04c6.06,0.12 12.59,0.32 17.94,-3.05c3.79,-2.66 7.46,-6.16 8.41,-10.9c-24.15,-0.17 -48.3,0 -72.44,-0.07c-6.95,0.21 -11.22,-8.3 -8.25,-14.18c0.94,-1.64 2.01,-3.53 3.91,-4.17c6.94,-1.84 14.23,-2.18 21.29,-0.78c18.32,0.34 36.67,0.02 55.01,0.13c10.4,-0.18 21,0.85 31.19,-1.84c5.71,-1.57 9.91,-6.11 13.1,-10.87c-6.92,-2.05 -14.16,-1.11 -21.25,-1.29c-34.97,-0.13 -69.95,0.25 -104.91,-0.2c-25.38,-0.2 -50.76,0.04 -76.13,-0.1c-6.2,0.01 -12.42,-0.38 -18.61,0.04c-0.33,0.02 -0.98,0.06 -1.31,0.08c-0.4,10.05 0.92,20.23 -1.12,30.15c-1.56,10.11 -5.65,19.61 -10.17,28.7c-3.24,6.72 -8.13,12.49 -13.47,17.63c-10,10.66 -23.79,16.8 -37.57,20.92c2.32,-8.26 4.35,-16.59 6.52,-24.89c17.8,-7.16 30.7,-24.04 34.37,-42.67c2.17,-8.04 1.46,-16.47 1.24,-24.68c-1.67,-10.49 -4.74,-21.06 -10.78,-29.92c-8.76,-14.1 -22.06,-25.13 -37.04,-32.11c-6.7,-3.25 -7.57,-13.35 -2.25,-18.23z" class="cls-1"/>
   <path stroke-width="0px" fill="#ffbb60" d="m422.93192,187.05298c5.92,-2.42 12.86,3.27 12.51,9.43c-0.69,4.76 -5.2,8.55 -10,8.46c-3.88,-0.49 -7.73,-3.43 -8.21,-7.48c-1.02,-4.25 1.46,-9.08 5.7,-10.41z" class="cls-1"/>
   <path stroke-width="0px" fill="#ffbb60" d="m351.01192,196.13298c5.98,-1.8 13.15,3.82 11.91,10.23c-0.72,6.69 -9.6,10.71 -15.02,6.65c-6.03,-4.16 -4.14,-15.19 3.11,-16.88z" class="cls-1"/>
   <path stroke-width="0px" fill="#ffbb60" d="m171.72192,245.41298c20.29,0.1 40.57,0 60.85,0.04c3.82,-0.2 6.63,2.7 9.04,5.26c-0.06,3.81 0.47,8.33 -2.86,11.04c-2.25,2.87 -5.96,2.99 -9.3,2.76c-18.02,-0.16 -36.04,0 -54.06,-0.06c-5.09,0.08 -9.52,-4.94 -9.02,-9.98c-0.15,-3.84 3.07,-6.43 5.35,-9.06z" class="cls-1"/>
   <path stroke-width="0px" fill="#ffbb60" d="m555.47192,255.40298c0.14,-4.38 2.78,-10.34 7.97,-9.97c17.67,0.03 35.34,0.02 53.02,0.01c4.83,-0.26 7.28,4.74 9.14,8.41c-0.75,2.44 -1.22,5 -2.45,7.26c-2.12,2.42 -5.53,3.39 -8.67,3.37c-16.66,-0.03 -33.31,-0.08 -49.97,0.02c-5.05,0.48 -8.36,-4.71 -9.04,-9.1z" class="cls-1"/>
   <path stroke-width="0px" fill="#ffbb60" d="m448.84192,286.90298c4.11,-1.31 8.25,2.07 9.76,5.71c0.91,3.48 -0.58,7.02 -1.64,10.3c-1.52,4 -3.16,8.6 -7.17,10.75c-4.67,2.58 -12.41,-1.47 -11.19,-7.23c0.7,-4.41 2.58,-8.52 4.36,-12.58c1.33,-2.71 2.72,-5.99 5.88,-6.95z" class="cls-1"/>
   <path stroke-width="0px" fill="#ffbb60" d="m434.78192,323.72298c4.39,-1.86 9.92,0.47 11.76,4.82c0.9,2.94 -0.35,5.94 -1.24,8.72c-3.9,10.41 -7.81,20.82 -11.82,31.19c-1.45,3.47 -3.38,7.5 -7.32,8.59c-5.64,1.9 -12.43,-4.4 -10.03,-10.15c4.37,-11.86 8.96,-23.64 13.32,-35.51c1.23,-2.83 2.22,-6.36 5.33,-7.66z" class="cls-1"/>
  </g>
  <g>
   <path fill="#ffffff" stroke-width="0px" d="m348.78192,182.73298c17.29,-17.42 44.14,-25.41 67.89,-18.38c13.21,3.54 25.35,11.81 32.24,23.78c3.75,6.09 4.41,13.49 8.11,19.62c6.87,0.61 14.56,-0.57 20.49,3.71c4.29,3.02 8.29,7.12 9.43,12.42c1.19,5.41 0.44,12.14 -4.49,15.5c-5.56,3.74 -12.62,2.55 -18.93,2.85c-11.22,0.38 -22.61,-0.66 -33.68,1.49c-5.17,0.74 -7.89,5.66 -9.91,9.92c-2.16,8.26 -0.11,16.89 -1.07,25.28c-0.22,2.75 -2.3,4.99 -4.72,6.11c-4.53,1.88 -10.12,-1.36 -10.86,-6.17c-1.21,-7.47 0.58,-15.06 -0.46,-22.54c-0.85,-6.21 -5.32,-11.55 -10.97,-14.07c-7.69,-3.76 -18.17,-1.68 -23.08,5.54c-3.59,4.93 -0.9,12.16 -5.39,16.6c-4.39,4.55 -12.85,1.77 -14.48,-4.11c-1.42,-6.26 0.91,-13.13 -2.21,-19.06c-3.66,-6.98 -11.5,-12.89 -19.72,-11.09c-5.24,0.8 -8.35,5.56 -11.12,9.58c-6.12,-6 -6.26,-16.31 -1,-22.9c3.18,-4.36 8.76,-5.83 12.38,-9.69c4,-6.13 -1.27,-14.53 -8.24,-14.99c0.92,-1.48 2.03,-2.84 2.84,-4.38c0.55,-0.29 1.63,-0.88 2.18,-1.18c0.47,-0.07 1.4,-0.22 1.87,-0.29c0.74,-0.21 2.23,-0.63 2.98,-0.85c2.92,1.99 5.67,5.26 9.5,5.03c4.38,-1.05 7.33,-4.74 10.42,-7.73zm74.15,4.32c-4.24,1.33 -6.72,6.16 -5.7,10.41c0.48,4.05 4.33,6.99 8.21,7.48c4.8,0.09 9.31,-3.7 10,-8.46c0.35,-6.16 -6.59,-11.85 -12.51,-9.43zm-71.92,9.08c-7.25,1.69 -9.14,12.72 -3.11,16.88c5.42,4.06 14.3,0.04 15.02,-6.65c1.24,-6.41 -5.93,-12.03 -11.91,-10.23z" class="cls-3"/>
   <path fill="#ffffff" stroke-width="0px" d="m330.88192,264.32298c2.28,5.1 5.05,9.94 8.53,14.31c1.34,5.01 1.61,10.22 2.47,15.32c2.21,14.97 7.78,29.14 12.75,43.35c5.44,14.61 11.59,29.4 12.11,45.21c0.63,10.33 -2.26,20.53 -1.53,30.87c0.33,5.92 3.53,11.09 5.99,16.33c-6.49,-4.38 -11.32,-11.41 -12.65,-19.16c-0.7,-7.69 0.23,-15.4 0.47,-23.08c0.1,-11.11 -3.44,-21.81 -7.53,-31.99c-6.45,-15.98 -13.13,-31.96 -17.34,-48.71c-4.02,-13.75 -4.09,-28.26 -3.27,-42.45z" class="cls-3"/>
  </g>
  <path fill="#f9f871" stroke-width="0px" d="m458.48192,261.09298c2.87,-0.34 5.77,-0.47 8.67,-0.55c1.36,10.27 1.75,20.67 0.95,31c-1.68,13.12 -5.26,25.97 -10.36,38.17c-4.43,10.6 -8.95,21.15 -13.15,31.85c-2.6,6.65 -4.32,13.67 -4.71,20.81c-0.54,8.03 0.65,16.04 0.57,24.07c-0.07,9.23 -5.12,18.1 -12.66,23.32c-13.37,9.55 -31.58,11.07 -46.72,5.06c-3.36,-1.5 -7.28,-2.36 -9.87,-5.11c-2.46,-5.24 -5.66,-10.41 -5.99,-16.33c-0.73,-10.34 2.16,-20.54 1.53,-30.87c-0.52,-15.81 -6.67,-30.6 -12.11,-45.21c-4.97,-14.21 -10.54,-28.38 -12.75,-43.35c-0.86,-5.1 -1.13,-10.31 -2.47,-15.32c5.17,2.58 10.22,5.95 16.16,6.37c8.84,0.7 17.34,-3.87 23.19,-10.26c3.35,-3.62 3.87,-8.77 5.45,-13.24c1.08,7.2 0.16,14.55 1.51,21.72c2.19,11.12 12.4,20.34 23.88,20.54c12.17,0.78 24.34,-8.2 26.72,-20.25c0.83,-7.16 -0.01,-14.4 0.65,-21.59c7.16,-0.53 14.37,0.03 21.51,-0.83zm-9.64,25.81c-3.16,0.96 -4.55,4.24 -5.88,6.95c-1.78,4.06 -3.66,8.17 -4.36,12.58c-1.22,5.76 6.52,9.81 11.19,7.23c4.01,-2.15 5.65,-6.75 7.17,-10.75c1.06,-3.28 2.55,-6.82 1.64,-10.3c-1.51,-3.64 -5.65,-7.02 -9.76,-5.71zm-14.06,36.82c-3.11,1.3 -4.1,4.83 -5.33,7.66c-4.36,11.87 -8.95,23.65 -13.32,35.51c-2.4,5.75 4.39,12.05 10.03,10.15c3.94,-1.09 5.87,-5.12 7.32,-8.59c4.01,-10.37 7.92,-20.78 11.82,-31.19c0.89,-2.78 2.14,-5.78 1.24,-8.72c-1.84,-4.35 -7.37,-6.68 -11.76,-4.82z" class="cls-2"/>
 </g>
</svg>