<?xml version="1.0" encoding="iso-8859-1"?>
<!-- Generator: Adobe Illustrator 16.0.0, SVG Export Plug-In . SVG Version: 6.00 Build 0)  -->
<!DOCTYPE svg PUBLIC "-//W3C//DTD SVG 1.1//EN" "http://www.w3.org/Graphics/SVG/1.1/DTD/svg11.dtd">
<svg version="1.1" id="Capa_1" xmlns="http://www.w3.org/2000/svg" xmlns:xlink="http://www.w3.org/1999/xlink" x="0px" y="0px"
	 width="636.916px" height="636.916px" viewBox="0 0 636.916 636.916" style="enable-background:new 0 0 636.916 636.916;"
	 xml:space="preserve">
<g>
	<g>
		<path d="M95.057,453.862c8.475-116.247,104.986-208.061,223.406-208.061c118.575,0,215.412,91.989,223.678,208.469
			c-0.603,6.671-4.726,16.688-24.69,16.688H116.854C99.501,470.958,95.606,461.059,95.057,453.862L95.057,453.862z M261.852,178.956
			c0-16.026,12.997-29.028,29.027-29.028h52.007c16.026,0,29.018,12.992,29.018,29.028v15.472
			c-0.097,3.647-1.478,17.081-18.34,15.505c-0.895-0.087-1.518-0.058-2.14-0.029c-10.833-1.337-21.782-2.232-32.98-2.232
			c-12.769,0-25.216,1.235-37.512,2.966c-0.856-0.029-1.853,0-3.058,0.161c-13.372,1.585-15.71-6.802-16.041-11.091L261.852,178.956
			L261.852,178.956L261.852,178.956z M621.668,470.102h-15.054c-18.263,0-17.582-17.406-17.582-17.406s-0.098,0.039-0.137,0.039
			C578.725,350.52,512.15,265.119,420.662,227.938c-0.253-0.141-0.428-0.272-0.72-0.389c-14.801-6.491-15.15-21.01-15.15-21.01
			V167.5c0-25.133-20.383-45.535-45.521-45.535h-81.598c-25.124,0-45.535,20.393-45.535,45.535v44.811
			c-0.418,3.749-2.641,9.992-12.326,14.091c-0.642,0.282-1.118,0.54-1.604,0.769C125.947,263.894,58.542,349.401,48.049,452.015
			l-0.102-0.02c0,0-1.512,18.106-18.832,18.106H17.845C14.242,470.18,0,471.425,0,486.128v11.767
			c0.209,5.037,2.402,17.057,18.909,17.057h598.383c16.356,0,19.215-10.58,19.624-15.899v-11.971
			C636.916,472.941,626.802,470.452,621.668,470.102L621.668,470.102z"/>
	</g>
</g>
<g>
</g>
<g>
</g>
<g>
</g>
<g>
</g>
<g>
</g>
<g>
</g>
<g>
</g>
<g>
</g>
<g>
</g>
<g>
</g>
<g>
</g>
<g>
</g>
<g>
</g>
<g>
</g>
<g>
</g>
</svg>
