<?xml version="1.0" encoding="UTF-8"?>
<svg id="Layer_1" data-name="Layer 1" xmlns="http://www.w3.org/2000/svg" viewBox="0 0 777.13 315.24">
  <defs>
    <style>
      .cls-1 {
        fill: #202c27;
      }

      .cls-1, .cls-2, .cls-3 {
        stroke-width: 0px;
      }

      .cls-2 {
        fill: #b97a48;
      }

      .cls-3 {
        fill: #fbfcfa;
      }
    </style>
  </defs>
  <g>
    <path class="cls-1" d="m375.1,1.28c5.96-.35,11.91-1.95,17.88-.97,5.15.79,10.4,1,15.46,2.34,13.62,3.21,26.36,9.93,36.88,19.13,6.84,6.83,12.1,15.16,16,23.98,7,2.04,14.17,4.48,19.81,9.29,7.41,5.77,12.62,14.26,14.56,23.44,1.33,9.9.54,21.04-6.36,28.86-3.42,4.53-8.3,7.55-13.37,9.91-.02,3.6.52,7.15.97,10.71.5,12.42.38,25.03-2.77,37.14-3,12-6.71,23.87-11.92,35.09-4.37,11.3-10.05,22.12-13.25,33.86-1.58,5.51-.74,11.3-.98,16.94-.33,5.79,1.93,11.52.46,17.27-1.03,11.22-6.1,22.13-14.63,29.59-9.06,9.94-22.24,14.55-35.15,16.83-17.4,1.97-36.08-1.23-50.27-12-6.65-5.75-12.95-12.38-16.24-20.69-1.58-4.49-3.18-9.1-3.16-13.92.03-9.34.05-18.68.06-28.01.11-6.39-2.79-12.2-4.93-18.06-7.9-22.09-18.81-43.45-21.86-66.98-.67-7.9-2.08-15.84-.88-23.77.78-4.64.8-9.35.63-14.03-10.43-3.58-18.84-13-20.36-24.03-2.32-11.26,1.7-23.02,8.69-31.86,4.77-5.44,10.65-10.84,18.19-11.59,6.97.46,12.24,8.86,8.24,14.99-3.62,3.86-9.2,5.33-12.38,9.69-5.26,6.59-5.12,16.9,1,22.9,2.77-4.02,5.88-8.78,11.12-9.58,8.22-1.8,16.06,4.11,19.72,11.09,3.12,5.93.79,12.8,2.21,19.06,1.63,5.88,10.09,8.66,14.48,4.11,4.49-4.44,1.8-11.67,5.39-16.6,4.91-7.22,15.39-9.3,23.08-5.54,5.65,2.52,10.12,7.86,10.97,14.07,1.04,7.48-.75,15.07.46,22.54.74,4.81,6.33,8.05,10.86,6.17,2.42-1.12,4.5-3.36,4.72-6.11.96-8.39-1.09-17.02,1.07-25.28,2.02-4.26,4.74-9.18,9.91-9.92,11.07-2.15,22.46-1.11,33.68-1.49,6.31-.3,13.37.89,18.93-2.85,4.93-3.36,5.68-10.09,4.49-15.5-1.14-5.3-5.14-9.4-9.43-12.42-5.93-4.28-13.62-3.1-20.49-3.71-3.7-6.13-4.36-13.53-8.11-19.62-6.89-11.97-19.03-20.24-32.24-23.78-23.75-7.03-50.6.96-67.89,18.38-3.09,2.99-6.04,6.68-10.42,7.73-3.83.23-6.58-3.04-9.5-5.03-1.59-4.11.89-8.15,3.29-11.34,12.8-16.74,32.61-27.56,53.38-30.43Zm72.95,117.43c-7.14.86-14.35.3-21.51.83-.66,7.19.18,14.43-.65,21.59-2.38,12.05-14.55,21.03-26.72,20.25-11.48-.2-21.69-9.42-23.88-20.54-1.35-7.17-.43-14.52-1.51-21.72-1.58,4.47-2.1,9.62-5.45,13.24-5.85,6.39-14.35,10.96-23.19,10.26-5.94-.42-10.99-3.79-16.16-6.37-3.48-4.37-6.25-9.21-8.53-14.31-.82,14.19-.75,28.7,3.27,42.45,4.21,16.75,10.89,32.73,17.34,48.71,4.09,10.18,7.63,20.88,7.53,31.99-.24,7.68-1.17,15.39-.47,23.08,1.33,7.75,6.16,14.78,12.65,19.16,2.59,2.75,6.51,3.61,9.87,5.11,15.14,6.01,33.35,4.49,46.72-5.06,7.54-5.22,12.59-14.09,12.66-23.32.08-8.03-1.11-16.04-.57-24.07.39-7.14,2.11-14.16,4.71-20.81,4.2-10.7,8.72-21.25,13.15-31.85,5.1-12.2,8.68-25.05,10.36-38.17.8-10.33.41-20.73-.95-31-2.9.08-5.8.21-8.67.55Z"/>
    <path class="cls-1" d="m294.66,17.69c4.32-2.19,8.36-5.73,13.44-5.73,5.32.08,9.69,4.89,9.9,10.08-.45,3.48-1.83,7.15-4.79,9.27-2.98,2.22-6.54,3.41-9.8,5.11-5.17,2.62-9.42,6.63-13.99,10.11-3.59,2.7-6.08,6.48-8.97,9.85-11.55,13.7-17,31.92-16.43,49.7.63,20.12,11.07,39.9,28.06,50.9,3.17,2.1,8.12,2.79,8.89,7.21,1.46,7.21,4.8,13.84,6.35,21.01-5.45.33-10.42-2.02-15.25-4.19-18.45-7.93-33.45-23.32-41.21-41.8-4.05-9.53-6.18-19.83-6.83-30.13.37-6.67-.88-13.51.95-20.03-74.74.08-149.47-.06-224.21.07,2.89,4.39,6.48,8.59,11.24,11.01,7.26,3.09,15.34,3.09,23.1,2.94,26.87.03,53.74-.06,80.62.05,1.7,1.75,3.58,3.38,4.95,5.44,1.18,3.88.56,8.65-2.81,11.28-2.85,2.92-7.19,2.2-10.86,2.27-20.69-.08-41.38-.04-62.07-.03,3.26,7.59,10.5,13.94,19.06,14,46.02-.03,92.04.05,138.06-.03,5.62-.07,11.57-.32,16.76,2.24,2.06,1.77,3.36,4.33,4.14,6.9.4,4.71-3.22,8.81-7.26,10.7-3.53.49-7.11.12-10.65.18-36.73,0-73.45-.01-110.17,0,5.13,8.46,13.96,14.94,24.14,14.99,35.68.01,71.37.06,107.05-.02,4.61-.19,8.83,2.07,12.04,5.23-.04,3.16-.06,6.33-.07,9.49-1.96,1.79-3.72,4.02-6.32,4.88-6.03,1.93-12.43,1.42-18.65,1.42-12.73-.04-25.46.02-38.18.01,3.17,6.72,9.26,11.72,16.32,13.91,4.79,1.49,9.87,1.09,14.82,1.1,15.69-.03,31.38.03,47.07-.05,4.05-.24,7.06,2.88,9.95,5.25-.08,4.05,1.03,9.26-2.8,12.02-4.47,2.84-9.99,3.47-15.18,3.78-14.33.02-28.67-.07-43,.03-10.65-.12-21.45-2.75-30.48-8.5-5.7-4.63-11.08-9.95-14.48-16.55-2.33-3.99-3.26-8.55-4.33-12.98-13.22-.37-26.53.83-39.68-.89-12.31-.31-24.08-6.86-31.61-16.49-3.64-4.97-6.18-10.69-7.81-16.62-8.32.14-16.91.2-24.8-2.82-12.35-5.17-21.94-16.71-24.02-30.04-5.88-1.74-12.25-.57-17.97-3.04-11.64-3.79-21.2-13.12-25.17-24.7C-.86,87.59.33,79.21,0,71.07c4.5-2.99,10.01-1.87,15.07-2,78.19-.03,156.38.06,234.56-.03,4.55-9.51,9.1-19.21,16.22-27.13,2.44-2.57,4.36-5.59,6.92-8.05,6.97-5.8,13.76-11.98,21.88-16.17Z"/>
    <path class="cls-1" d="m462.81,13.79c2.74-1.83,6.35-2.17,9.39-.89,20.3,8.21,38.01,23.17,48.5,42.49,2.36,4.49,4.55,9.07,6.76,13.64,77.52.1,155.05.01,232.57.04,4.2.1,8.47-.4,12.64.32,2.59.55,4.28,3.08,4.34,5.65.54,9.38-.53,19.27-5.63,27.39-5.78,10.95-17.58,17.15-29.3,19.55-3.27.12-6.59.01-9.71,1.12-2.17,6.46-3.87,13.42-8.55,18.61-6.9,8.25-17.35,12.63-27.78,14.21-4.24.49-8.52-.23-12.75.34-1.63,2.09-1.35,5.14-2.46,7.54-4.83,12.2-16.3,20.93-28.73,24.36-15.76,2.9-31.84,1.66-47.77,1.9-2.11,8.54-5.44,17.09-11.91,23.29-9.29,9.9-23.06,14.3-36.34,14.75-14.36-.04-28.71-.05-43.07,0-4.99-.14-10.3-.63-14.61-3.4-3.43-2.21-5.56-7.02-3.6-10.86,1.68-4.05,5.78-6.91,10.22-6.75,15.68-.06,31.37,0,47.05,0,7.2.48,14.61-.52,20.99-4.05,4.37-2.98,7.84-7.19,10.14-11.94-6.4-.31-12.78.03-19.11.95-12.01-.04-24.03.16-36.03-.08-6.34-.07-11.07-6.73-9.9-12.76.68-2.19,1.91-4.14,2.98-6.14,3.92-.92,7.86-1.98,11.92-2.01,35.01.06,70.03-.03,105.05.04,10.04.02,20.24-5.59,24.4-14.93-39.84-.26-79.7,0-119.54-.13-7.15-.05-11.58-9.66-7.19-15.19,3.03-4.05,8.55-4.63,13.23-4.8,45.37.08,90.74-.02,136.12.04,6.06.12,12.59.32,17.94-3.05,3.79-2.66,7.46-6.16,8.41-10.9-24.15-.17-48.3,0-72.44-.07-6.95.21-11.22-8.3-8.25-14.18.94-1.64,2.01-3.53,3.91-4.17,6.94-1.84,14.23-2.18,21.29-.78,18.32.34,36.67.02,55.01.13,10.4-.18,21,.85,31.19-1.84,5.71-1.57,9.91-6.11,13.1-10.87-6.92-2.05-14.16-1.11-21.25-1.29-34.97-.13-69.95.25-104.91-.2-25.38-.2-50.76.04-76.13-.1-6.2.01-12.42-.38-18.61.04-.33.02-.98.06-1.31.08-.4,10.05.92,20.23-1.12,30.15-1.56,10.11-5.65,19.61-10.17,28.7-3.24,6.72-8.13,12.49-13.47,17.63-10,10.66-23.79,16.8-37.57,20.92,2.32-8.26,4.35-16.59,6.52-24.89,17.8-7.16,30.7-24.04,34.37-42.67,2.17-8.04,1.46-16.47,1.24-24.68-1.67-10.49-4.74-21.06-10.78-29.92-8.76-14.1-22.06-25.13-37.04-32.11-6.7-3.25-7.57-13.35-2.25-18.23Z"/>
    <path class="cls-1" d="m412.5,44.67c5.92-2.42,12.86,3.27,12.51,9.43-.69,4.76-5.2,8.55-10,8.46-3.88-.49-7.73-3.43-8.21-7.48-1.02-4.25,1.46-9.08,5.7-10.41Z"/>
    <path class="cls-1" d="m340.58,53.75c5.98-1.8,13.15,3.82,11.91,10.23-.72,6.69-9.6,10.71-15.02,6.65-6.03-4.16-4.14-15.19,3.11-16.88Z"/>
    <path class="cls-1" d="m161.29,103.03c20.29.1,40.57,0,60.85.04,3.82-.2,6.63,2.7,9.04,5.26-.06,3.81.47,8.33-2.86,11.04-2.25,2.87-5.96,2.99-9.3,2.76-18.02-.16-36.04,0-54.06-.06-5.09.08-9.52-4.94-9.02-9.98-.15-3.84,3.07-6.43,5.35-9.06Z"/>
    <path class="cls-1" d="m545.04,113.02c.14-4.38,2.78-10.34,7.97-9.97,17.67.03,35.34.02,53.02.01,4.83-.26,7.28,4.74,9.14,8.41-.75,2.44-1.22,5-2.45,7.26-2.12,2.42-5.53,3.39-8.67,3.37-16.66-.03-33.31-.08-49.97.02-5.05.48-8.36-4.71-9.04-9.1Z"/>
    <path class="cls-1" d="m438.41,144.52c4.11-1.31,8.25,2.07,9.76,5.71.91,3.48-.58,7.02-1.64,10.3-1.52,4-3.16,8.6-7.17,10.75-4.67,2.58-12.41-1.47-11.19-7.23.7-4.41,2.58-8.52,4.36-12.58,1.33-2.71,2.72-5.99,5.88-6.95Z"/>
    <path class="cls-1" d="m424.35,181.34c4.39-1.86,9.92.47,11.76,4.82.9,2.94-.35,5.94-1.24,8.72-3.9,10.41-7.81,20.82-11.82,31.19-1.45,3.47-3.38,7.5-7.32,8.59-5.64,1.9-12.43-4.4-10.03-10.15,4.37-11.86,8.96-23.64,13.32-35.51,1.23-2.83,2.22-6.36,5.33-7.66Z"/>
  </g>
  <g>
    <path class="cls-3" d="m338.35,40.35c17.29-17.42,44.14-25.41,67.89-18.38,13.21,3.54,25.35,11.81,32.24,23.78,3.75,6.09,4.41,13.49,8.11,19.62,6.87.61,14.56-.57,20.49,3.71,4.29,3.02,8.29,7.12,9.43,12.42,1.19,5.41.44,12.14-4.49,15.5-5.56,3.74-12.62,2.55-18.93,2.85-11.22.38-22.61-.66-33.68,1.49-5.17.74-7.89,5.66-9.91,9.92-2.16,8.26-.11,16.89-1.07,25.28-.22,2.75-2.3,4.99-4.72,6.11-4.53,1.88-10.12-1.36-10.86-6.17-1.21-7.47.58-15.06-.46-22.54-.85-6.21-5.32-11.55-10.97-14.07-7.69-3.76-18.17-1.68-23.08,5.54-3.59,4.93-.9,12.16-5.39,16.6-4.39,4.55-12.85,1.77-14.48-4.11-1.42-6.26.91-13.13-2.21-19.06-3.66-6.98-11.5-12.89-19.72-11.09-5.24.8-8.35,5.56-11.12,9.58-6.12-6-6.26-16.31-1-22.9,3.18-4.36,8.76-5.83,12.38-9.69,4-6.13-1.27-14.53-8.24-14.99.92-1.48,2.03-2.84,2.84-4.38.55-.29,1.63-.88,2.18-1.18.47-.07,1.4-.22,1.87-.29.74-.21,2.23-.63,2.98-.85,2.92,1.99,5.67,5.26,9.5,5.03,4.38-1.05,7.33-4.74,10.42-7.73Zm74.15,4.32c-4.24,1.33-6.72,6.16-5.7,10.41.48,4.05,4.33,6.99,8.21,7.48,4.8.09,9.31-3.7,10-8.46.35-6.16-6.59-11.85-12.51-9.43Zm-71.92,9.08c-7.25,1.69-9.14,12.72-3.11,16.88,5.42,4.06,14.3.04,15.02-6.65,1.24-6.41-5.93-12.03-11.91-10.23Z"/>
    <path class="cls-3" d="m320.45,121.94c2.28,5.1,5.05,9.94,8.53,14.31,1.34,5.01,1.61,10.22,2.47,15.32,2.21,14.97,7.78,29.14,12.75,43.35,5.44,14.61,11.59,29.4,12.11,45.21.63,10.33-2.26,20.53-1.53,30.87.33,5.92,3.53,11.09,5.99,16.33-6.49-4.38-11.32-11.41-12.65-19.16-.7-7.69.23-15.4.47-23.08.1-11.11-3.44-21.81-7.53-31.99-6.45-15.98-13.13-31.96-17.34-48.71-4.02-13.75-4.09-28.26-3.27-42.45Z"/>
  </g>
  <path class="cls-2" d="m448.05,118.71c2.87-.34,5.77-.47,8.67-.55,1.36,10.27,1.75,20.67.95,31-1.68,13.12-5.26,25.97-10.36,38.17-4.43,10.6-8.95,21.15-13.15,31.85-2.6,6.65-4.32,13.67-4.71,20.81-.54,8.03.65,16.04.57,24.07-.07,9.23-5.12,18.1-12.66,23.32-13.37,9.55-31.58,11.07-46.72,5.06-3.36-1.5-7.28-2.36-9.87-5.11-2.46-5.24-5.66-10.41-5.99-16.33-.73-10.34,2.16-20.54,1.53-30.87-.52-15.81-6.67-30.6-12.11-45.21-4.97-14.21-10.54-28.38-12.75-43.35-.86-5.1-1.13-10.31-2.47-15.32,5.17,2.58,10.22,5.95,16.16,6.37,8.84.7,17.34-3.87,23.19-10.26,3.35-3.62,3.87-8.77,5.45-13.24,1.08,7.2.16,14.55,1.51,21.72,2.19,11.12,12.4,20.34,23.88,20.54,12.17.78,24.34-8.2,26.72-20.25.83-7.16-.01-14.4.65-21.59,7.16-.53,14.37.03,21.51-.83Zm-9.64,25.81c-3.16.96-4.55,4.24-5.88,6.95-1.78,4.06-3.66,8.17-4.36,12.58-1.22,5.76,6.52,9.81,11.19,7.23,4.01-2.15,5.65-6.75,7.17-10.75,1.06-3.28,2.55-6.82,1.64-10.3-1.51-3.64-5.65-7.02-9.76-5.71Zm-14.06,36.82c-3.11,1.3-4.1,4.83-5.33,7.66-4.36,11.87-8.95,23.65-13.32,35.51-2.4,5.75,4.39,12.05,10.03,10.15,3.94-1.09,5.87-5.12,7.32-8.59,4.01-10.37,7.92-20.78,11.82-31.19.89-2.78,2.14-5.78,1.24-8.72-1.84-4.35-7.37-6.68-11.76-4.82Z"/>
</svg>