<?xml version="1.0" ?><svg style="enable-background:new 0 0 64 64;" version="1.1" viewBox="0 0 64 64" xml:space="preserve" xmlns="http://www.w3.org/2000/svg" xmlns:xlink="http://www.w3.org/1999/xlink"><g id="Layer_1"/><g id="Light"/><g id="Window"/><g id="Rub_el_hizb"/><g id="Muslimah"/><g id="Muslim"/><g id="Wudhu"/><g id="Praying_00000094592418709929368740000016989174723214131090_"/><g id="Praying"/><g id="Pray"/><g id="Ketupat"/><g id="Gift"/><g id="Oil_Lamp"/><g id="Tauhid"/><g id="Zakat"/><g id="Eat"/><g id="Oud"/><g id="Teapot"/><g id="Iftar"/><g id="Dawn"/><g id="Infaq"/><g id="Sajadah"/><g id="Kaaba"/><g id="Mosque_00000003803682752247596670000011302116631847618953_"/><g id="Fasting"><g><path d="M57,42h-0.022c0.001-2.84-1.664-5.393-4.336-6.484c-0.667-0.272-1.017-0.825-1.193-1.241C50.35,31.678,47.819,30,45,30    c-1.083,0-2.125,0.243-3.097,0.724c-0.573,0.283-1.232,0.284-1.806,0C39.125,30.243,38.083,30,37,30    c-1.086,0-2.126,0.254-3.061,0.708l1.051-10.509c0.056-0.562-0.128-1.122-0.507-1.541S33.565,18,33,18H3    c-0.565,0-1.104,0.239-1.483,0.658c-0.379,0.419-0.563,0.979-0.507,1.541l3.82,38.2C5.036,60.452,6.747,62,8.81,62h18.38    c1.07,0,2.045-0.427,2.769-1.125C31.494,61.589,33.198,62,35,62h12c6.617,0,12-5.383,12-12v-6C59,42.896,58.104,42,57,42z M37,34    c0.464,0,0.909,0.104,1.324,0.309c1.701,0.841,3.652,0.841,5.352,0C44.091,34.104,44.536,34,45,34c1.208,0,2.294,0.72,2.765,1.833    c0.664,1.569,1.859,2.772,3.365,3.386c1.144,0.467,1.857,1.561,1.86,2.78H29.01c0.002-1.219,0.716-2.313,1.859-2.78    c1.506-0.615,2.702-1.817,3.366-3.387C34.706,34.72,35.792,34,37,34z M30.79,22l-0.8,8h-4.959c-2.29,0-4.551-0.601-6.539-1.736    C15.901,26.783,12.954,26,9.969,26H5.61l-0.4-4H30.79z M6.01,30h3.959c2.29,0,4.551,0.601,6.539,1.736    C19.099,33.217,22.046,34,25.031,34h4.558l-0.147,1.469c-0.031,0.014-0.053,0.035-0.085,0.048    c-2.672,1.09-4.337,3.644-4.336,6.483H25c-1.104,0-2,0.896-2,2v6c0,3.075,1.173,5.874,3.081,8H8.81L6.01,30z M55,50    c0,4.411-3.589,8-8,8H35c-2.953,0-5.532-1.613-6.918-4H50c1.104,0,2-0.896,2-2s-0.896-2-2-2H27v-4h28V50z"/><path d="M50,28c1.104,0,2-0.896,2-2s-0.896-2-2-2c-4.962,0-9-4.038-9-9s4.038-9,9-9c1.104,0,2-0.896,2-2s-0.896-2-2-2    c-7.168,0-13,5.832-13,13S42.832,28,50,28z"/><path d="M54.908,7.454c1.83,1.193,3.163,3,3.754,5.09C58.911,13.425,59.712,14,60.585,14c0.18,0,0.363-0.024,0.545-0.076    c1.063-0.3,1.681-1.406,1.38-2.469c-0.854-3.02-2.778-5.631-5.418-7.352c-0.926-0.604-2.165-0.342-2.768,0.583    C53.721,5.612,53.982,6.851,54.908,7.454z"/><path d="M61.13,16.076c-1.064-0.302-2.168,0.317-2.469,1.38c-0.591,2.09-1.924,3.897-3.754,5.09    c-0.925,0.603-1.187,1.842-0.583,2.768c0.383,0.588,1.024,0.908,1.677,0.908c0.375,0,0.753-0.105,1.09-0.325    c2.64-1.721,4.564-4.332,5.418-7.352C62.811,17.481,62.193,16.376,61.13,16.076z"/><path d="M50,8c-1.104,0-2,0.896-2,2v4.171l-2.414,2.415c-0.781,0.781-0.781,2.047,0,2.828C45.976,19.805,46.488,20,47,20    s1.024-0.195,1.414-0.586l3-3C51.789,16.039,52,15.53,52,15v-5C52,8.896,51.104,8,50,8z"/></g></g><g id="Quran_00000024699989614576326310000007593149211605186702_"/><g id="Calendar"/><g id="Bedug"/><g id="Lantern"/><g id="Quran"/><g id="Mosque"/></svg>